G04 #@! TF.FileFunction,Legend,Top*
%FSLAX46Y46*%
G04 Gerber Fmt 4.6, Leading zero omitted, Abs format (unit mm)*
G04 Created by KiCad (PCBNEW 4.0.1-stable) date 8/1/2017 2:14:50 AM*
%MOMM*%
G01*
G04 APERTURE LIST*
%ADD10C,0.100000*%
%ADD11C,0.177800*%
%ADD12C,0.120000*%
%ADD13C,0.150000*%
G04 APERTURE END LIST*
D10*
D11*
X143592381Y-95135000D02*
X143471429Y-95074524D01*
X143290000Y-95074524D01*
X143108572Y-95135000D01*
X142987619Y-95255952D01*
X142927143Y-95376905D01*
X142866667Y-95618810D01*
X142866667Y-95800238D01*
X142927143Y-96042143D01*
X142987619Y-96163095D01*
X143108572Y-96284048D01*
X143290000Y-96344524D01*
X143410952Y-96344524D01*
X143592381Y-96284048D01*
X143652857Y-96223571D01*
X143652857Y-95800238D01*
X143410952Y-95800238D01*
X144197143Y-96344524D02*
X144197143Y-95074524D01*
X144922857Y-96344524D01*
X144922857Y-95074524D01*
X145527619Y-96344524D02*
X145527619Y-95074524D01*
X145830000Y-95074524D01*
X146011428Y-95135000D01*
X146132381Y-95255952D01*
X146192857Y-95376905D01*
X146253333Y-95618810D01*
X146253333Y-95800238D01*
X146192857Y-96042143D01*
X146132381Y-96163095D01*
X146011428Y-96284048D01*
X145830000Y-96344524D01*
X145527619Y-96344524D01*
X132392381Y-95255000D02*
X132271429Y-95194524D01*
X132090000Y-95194524D01*
X131908572Y-95255000D01*
X131787619Y-95375952D01*
X131727143Y-95496905D01*
X131666667Y-95738810D01*
X131666667Y-95920238D01*
X131727143Y-96162143D01*
X131787619Y-96283095D01*
X131908572Y-96404048D01*
X132090000Y-96464524D01*
X132210952Y-96464524D01*
X132392381Y-96404048D01*
X132452857Y-96343571D01*
X132452857Y-95920238D01*
X132210952Y-95920238D01*
X132997143Y-96464524D02*
X132997143Y-95194524D01*
X133722857Y-96464524D01*
X133722857Y-95194524D01*
X134327619Y-96464524D02*
X134327619Y-95194524D01*
X134630000Y-95194524D01*
X134811428Y-95255000D01*
X134932381Y-95375952D01*
X134992857Y-95496905D01*
X135053333Y-95738810D01*
X135053333Y-95920238D01*
X134992857Y-96162143D01*
X134932381Y-96283095D01*
X134811428Y-96404048D01*
X134630000Y-96464524D01*
X134327619Y-96464524D01*
X121832381Y-88805000D02*
X121711429Y-88744524D01*
X121530000Y-88744524D01*
X121348572Y-88805000D01*
X121227619Y-88925952D01*
X121167143Y-89046905D01*
X121106667Y-89288810D01*
X121106667Y-89470238D01*
X121167143Y-89712143D01*
X121227619Y-89833095D01*
X121348572Y-89954048D01*
X121530000Y-90014524D01*
X121650952Y-90014524D01*
X121832381Y-89954048D01*
X121892857Y-89893571D01*
X121892857Y-89470238D01*
X121650952Y-89470238D01*
X122437143Y-90014524D02*
X122437143Y-88744524D01*
X123162857Y-90014524D01*
X123162857Y-88744524D01*
X123767619Y-90014524D02*
X123767619Y-88744524D01*
X124070000Y-88744524D01*
X124251428Y-88805000D01*
X124372381Y-88925952D01*
X124432857Y-89046905D01*
X124493333Y-89288810D01*
X124493333Y-89470238D01*
X124432857Y-89712143D01*
X124372381Y-89833095D01*
X124251428Y-89954048D01*
X124070000Y-90014524D01*
X123767619Y-90014524D01*
X121225001Y-83894524D02*
X121225001Y-82624524D01*
X121225001Y-83229286D02*
X121950715Y-83229286D01*
X121950715Y-83894524D02*
X121950715Y-82624524D01*
X122495001Y-83531667D02*
X123099763Y-83531667D01*
X122374048Y-83894524D02*
X122797382Y-82624524D01*
X123220715Y-83894524D01*
X124248810Y-83894524D02*
X123644048Y-83894524D01*
X123644048Y-82624524D01*
X124490714Y-82624524D02*
X125216429Y-82624524D01*
X124853572Y-83894524D02*
X124853572Y-82624524D01*
X121337620Y-76614524D02*
X122123810Y-76614524D01*
X121700477Y-77098333D01*
X121881905Y-77098333D01*
X122002858Y-77158810D01*
X122063334Y-77219286D01*
X122123810Y-77340238D01*
X122123810Y-77642619D01*
X122063334Y-77763571D01*
X122002858Y-77824048D01*
X121881905Y-77884524D01*
X121519048Y-77884524D01*
X121398096Y-77824048D01*
X121337620Y-77763571D01*
X122486667Y-76614524D02*
X122910001Y-77884524D01*
X123333334Y-76614524D01*
X123635715Y-76614524D02*
X124421905Y-76614524D01*
X123998572Y-77098333D01*
X124180000Y-77098333D01*
X124300953Y-77158810D01*
X124361429Y-77219286D01*
X124421905Y-77340238D01*
X124421905Y-77642619D01*
X124361429Y-77763571D01*
X124300953Y-77824048D01*
X124180000Y-77884524D01*
X123817143Y-77884524D01*
X123696191Y-77824048D01*
X123635715Y-77763571D01*
X141675001Y-88474524D02*
X141675001Y-87204524D01*
X141675001Y-87809286D02*
X142400715Y-87809286D01*
X142400715Y-88474524D02*
X142400715Y-87204524D01*
X142945001Y-88111667D02*
X143549763Y-88111667D01*
X142824048Y-88474524D02*
X143247382Y-87204524D01*
X143670715Y-88474524D01*
X144698810Y-88474524D02*
X144094048Y-88474524D01*
X144094048Y-87204524D01*
X144940714Y-87204524D02*
X145666429Y-87204524D01*
X145303572Y-88474524D02*
X145303572Y-87204524D01*
X129822619Y-89114524D02*
X129399286Y-88509762D01*
X129096905Y-89114524D02*
X129096905Y-87844524D01*
X129580714Y-87844524D01*
X129701667Y-87905000D01*
X129762143Y-87965476D01*
X129822619Y-88086429D01*
X129822619Y-88267857D01*
X129762143Y-88388810D01*
X129701667Y-88449286D01*
X129580714Y-88509762D01*
X129096905Y-88509762D01*
X130366905Y-87844524D02*
X130366905Y-88872619D01*
X130427381Y-88993571D01*
X130487857Y-89054048D01*
X130608810Y-89114524D01*
X130850714Y-89114524D01*
X130971667Y-89054048D01*
X131032143Y-88993571D01*
X131092619Y-88872619D01*
X131092619Y-87844524D01*
X131697381Y-89114524D02*
X131697381Y-87844524D01*
X132423095Y-89114524D01*
X132423095Y-87844524D01*
X150555953Y-88463571D02*
X150495477Y-88524048D01*
X150314048Y-88584524D01*
X150193096Y-88584524D01*
X150011668Y-88524048D01*
X149890715Y-88403095D01*
X149830239Y-88282143D01*
X149769763Y-88040238D01*
X149769763Y-87858810D01*
X149830239Y-87616905D01*
X149890715Y-87495952D01*
X150011668Y-87375000D01*
X150193096Y-87314524D01*
X150314048Y-87314524D01*
X150495477Y-87375000D01*
X150555953Y-87435476D01*
X150918810Y-87314524D02*
X151644525Y-87314524D01*
X151281668Y-88584524D02*
X151281668Y-87314524D01*
X152672620Y-88584524D02*
X152067858Y-88584524D01*
X152067858Y-87314524D01*
X154789286Y-88584524D02*
X154365953Y-87979762D01*
X154063572Y-88584524D02*
X154063572Y-87314524D01*
X154547381Y-87314524D01*
X154668334Y-87375000D01*
X154728810Y-87435476D01*
X154789286Y-87556429D01*
X154789286Y-87737857D01*
X154728810Y-87858810D01*
X154668334Y-87919286D01*
X154547381Y-87979762D01*
X154063572Y-87979762D01*
X155333572Y-87314524D02*
X155333572Y-88342619D01*
X155394048Y-88463571D01*
X155454524Y-88524048D01*
X155575477Y-88584524D01*
X155817381Y-88584524D01*
X155938334Y-88524048D01*
X155998810Y-88463571D01*
X156059286Y-88342619D01*
X156059286Y-87314524D01*
X156664048Y-88584524D02*
X156664048Y-87314524D01*
X157389762Y-88584524D01*
X157389762Y-87314524D01*
X149764048Y-76343571D02*
X149703572Y-76404048D01*
X149522143Y-76464524D01*
X149401191Y-76464524D01*
X149219763Y-76404048D01*
X149098810Y-76283095D01*
X149038334Y-76162143D01*
X148977858Y-75920238D01*
X148977858Y-75738810D01*
X149038334Y-75496905D01*
X149098810Y-75375952D01*
X149219763Y-75255000D01*
X149401191Y-75194524D01*
X149522143Y-75194524D01*
X149703572Y-75255000D01*
X149764048Y-75315476D01*
X150126905Y-75194524D02*
X150852620Y-75194524D01*
X150489763Y-76464524D02*
X150489763Y-75194524D01*
X151880715Y-76464524D02*
X151275953Y-76464524D01*
X151275953Y-75194524D01*
X153271667Y-76464524D02*
X153271667Y-75194524D01*
X153271667Y-75799286D02*
X153997381Y-75799286D01*
X153997381Y-76464524D02*
X153997381Y-75194524D01*
X154541667Y-76101667D02*
X155146429Y-76101667D01*
X154420714Y-76464524D02*
X154844048Y-75194524D01*
X155267381Y-76464524D01*
X156295476Y-76464524D02*
X155690714Y-76464524D01*
X155690714Y-75194524D01*
X156537380Y-75194524D02*
X157263095Y-75194524D01*
X156900238Y-76464524D02*
X156900238Y-75194524D01*
D10*
X130886200Y-78512400D02*
X130886200Y-77612400D01*
X130886200Y-80612400D02*
X130886200Y-79712400D01*
X133286200Y-78712400D02*
X133286200Y-79512400D01*
X130886200Y-77612400D02*
X130886200Y-77412400D01*
X130886200Y-77412400D02*
X133286200Y-77412400D01*
X133286200Y-77412400D02*
X133286200Y-77612400D01*
X130886200Y-80612400D02*
X130886200Y-80812400D01*
X130886200Y-80812400D02*
X133286200Y-80812400D01*
X133286200Y-80812400D02*
X133286200Y-80612400D01*
X143306800Y-78563200D02*
X143306800Y-77663200D01*
X143306800Y-80663200D02*
X143306800Y-79763200D01*
X145706800Y-78763200D02*
X145706800Y-79563200D01*
X143306800Y-77663200D02*
X143306800Y-77463200D01*
X143306800Y-77463200D02*
X145706800Y-77463200D01*
X145706800Y-77463200D02*
X145706800Y-77663200D01*
X143306800Y-80663200D02*
X143306800Y-80863200D01*
X143306800Y-80863200D02*
X145706800Y-80863200D01*
X145706800Y-80863200D02*
X145706800Y-80663200D01*
D12*
X127166000Y-77587000D02*
X127241000Y-77587000D01*
X127166000Y-80562000D02*
X127216000Y-80562000D01*
X127166000Y-77587000D02*
X127166000Y-80562000D01*
X128841000Y-80562000D02*
X127216000Y-80562000D01*
X127216000Y-77587000D02*
X128841000Y-77587000D01*
X128841000Y-77587000D02*
X128841000Y-80562000D01*
X135344800Y-77612400D02*
X135419800Y-77612400D01*
X135344800Y-80587400D02*
X135394800Y-80587400D01*
X135344800Y-77612400D02*
X135344800Y-80587400D01*
X137019800Y-80587400D02*
X135394800Y-80587400D01*
X135394800Y-77612400D02*
X137019800Y-77612400D01*
X137019800Y-77612400D02*
X137019800Y-80587400D01*
X139789800Y-77612400D02*
X139864800Y-77612400D01*
X139789800Y-80587400D02*
X139839800Y-80587400D01*
X139789800Y-77612400D02*
X139789800Y-80587400D01*
X141464800Y-80587400D02*
X139839800Y-80587400D01*
X139839800Y-77612400D02*
X141464800Y-77612400D01*
X141464800Y-77612400D02*
X141464800Y-80587400D01*
X148044800Y-77612400D02*
X148119800Y-77612400D01*
X148044800Y-80587400D02*
X148094800Y-80587400D01*
X148044800Y-77612400D02*
X148044800Y-80587400D01*
X149719800Y-80587400D02*
X148094800Y-80587400D01*
X148094800Y-77612400D02*
X149719800Y-77612400D01*
X149719800Y-77612400D02*
X149719800Y-80587400D01*
D10*
X125360800Y-68500000D02*
X136360800Y-68500000D01*
X136360800Y-68500000D02*
X136360800Y-74500000D01*
X136360800Y-74500000D02*
X125360800Y-74500000D01*
X125360800Y-74500000D02*
X125360800Y-68500000D01*
X139500000Y-68500000D02*
X150500000Y-68500000D01*
X150500000Y-68500000D02*
X150500000Y-74500000D01*
X150500000Y-74500000D02*
X139500000Y-74500000D01*
X139500000Y-74500000D02*
X139500000Y-68500000D01*
D13*
X132250000Y-83450000D02*
X132250000Y-86549400D01*
X129150000Y-86549400D02*
X129150000Y-83450000D01*
X129150000Y-83450000D02*
X132250000Y-83450000D01*
X129150600Y-86549400D02*
X132249400Y-86549400D01*
X145020000Y-83450000D02*
X145020000Y-86549400D01*
X141920000Y-86549400D02*
X141920000Y-83450000D01*
X141920000Y-83450000D02*
X145020000Y-83450000D01*
X141920600Y-86549400D02*
X145019400Y-86549400D01*
X155830000Y-83450000D02*
X155830000Y-86549400D01*
X152730000Y-86549400D02*
X152730000Y-83450000D01*
X152730000Y-83450000D02*
X155830000Y-83450000D01*
X152730600Y-86549400D02*
X155829400Y-86549400D01*
X155830000Y-77580000D02*
X155830000Y-80679400D01*
X152730000Y-80679400D02*
X152730000Y-77580000D01*
X152730000Y-77580000D02*
X155830000Y-77580000D01*
X152730600Y-80679400D02*
X155829400Y-80679400D01*
X120470000Y-75730000D02*
X120470000Y-78829400D01*
X117370000Y-78829400D02*
X117370000Y-75730000D01*
X117370000Y-75730000D02*
X120470000Y-75730000D01*
X117370600Y-78829400D02*
X120469400Y-78829400D01*
X120440000Y-81740000D02*
X120440000Y-84839400D01*
X117340000Y-84839400D02*
X117340000Y-81740000D01*
X117340000Y-81740000D02*
X120440000Y-81740000D01*
X117340600Y-84839400D02*
X120439400Y-84839400D01*
X120360000Y-87940000D02*
X120360000Y-91039400D01*
X117260000Y-91039400D02*
X117260000Y-87940000D01*
X117260000Y-87940000D02*
X120360000Y-87940000D01*
X117260600Y-91039400D02*
X120359400Y-91039400D01*
X134820000Y-91430000D02*
X134820000Y-94529400D01*
X131720000Y-94529400D02*
X131720000Y-91430000D01*
X131720000Y-91430000D02*
X134820000Y-91430000D01*
X131720600Y-94529400D02*
X134819400Y-94529400D01*
X146060000Y-91380000D02*
X146060000Y-94479400D01*
X142960000Y-94479400D02*
X142960000Y-91380000D01*
X142960000Y-91380000D02*
X146060000Y-91380000D01*
X142960600Y-94479400D02*
X146059400Y-94479400D01*
X132086362Y-82327019D02*
X131991124Y-82279400D01*
X131895886Y-82184162D01*
X131753029Y-82041305D01*
X131657790Y-81993686D01*
X131562552Y-81993686D01*
X131610171Y-82231781D02*
X131514933Y-82184162D01*
X131419695Y-82088924D01*
X131372076Y-81898448D01*
X131372076Y-81565114D01*
X131419695Y-81374638D01*
X131514933Y-81279400D01*
X131610171Y-81231781D01*
X131800648Y-81231781D01*
X131895886Y-81279400D01*
X131991124Y-81374638D01*
X132038743Y-81565114D01*
X132038743Y-81898448D01*
X131991124Y-82088924D01*
X131895886Y-82184162D01*
X131800648Y-82231781D01*
X131610171Y-82231781D01*
X132991124Y-82231781D02*
X132419695Y-82231781D01*
X132705409Y-82231781D02*
X132705409Y-81231781D01*
X132610171Y-81374638D01*
X132514933Y-81469876D01*
X132419695Y-81517495D01*
X144532362Y-82377819D02*
X144437124Y-82330200D01*
X144341886Y-82234962D01*
X144199029Y-82092105D01*
X144103790Y-82044486D01*
X144008552Y-82044486D01*
X144056171Y-82282581D02*
X143960933Y-82234962D01*
X143865695Y-82139724D01*
X143818076Y-81949248D01*
X143818076Y-81615914D01*
X143865695Y-81425438D01*
X143960933Y-81330200D01*
X144056171Y-81282581D01*
X144246648Y-81282581D01*
X144341886Y-81330200D01*
X144437124Y-81425438D01*
X144484743Y-81615914D01*
X144484743Y-81949248D01*
X144437124Y-82139724D01*
X144341886Y-82234962D01*
X144246648Y-82282581D01*
X144056171Y-82282581D01*
X144865695Y-81377819D02*
X144913314Y-81330200D01*
X145008552Y-81282581D01*
X145246648Y-81282581D01*
X145341886Y-81330200D01*
X145389505Y-81377819D01*
X145437124Y-81473057D01*
X145437124Y-81568295D01*
X145389505Y-81711152D01*
X144818076Y-82282581D01*
X145437124Y-82282581D01*
X127950934Y-82231781D02*
X127617600Y-81755590D01*
X127379505Y-82231781D02*
X127379505Y-81231781D01*
X127760458Y-81231781D01*
X127855696Y-81279400D01*
X127903315Y-81327019D01*
X127950934Y-81422257D01*
X127950934Y-81565114D01*
X127903315Y-81660352D01*
X127855696Y-81707971D01*
X127760458Y-81755590D01*
X127379505Y-81755590D01*
X128903315Y-82231781D02*
X128331886Y-82231781D01*
X128617600Y-82231781D02*
X128617600Y-81231781D01*
X128522362Y-81374638D01*
X128427124Y-81469876D01*
X128331886Y-81517495D01*
X135951934Y-82282581D02*
X135618600Y-81806390D01*
X135380505Y-82282581D02*
X135380505Y-81282581D01*
X135761458Y-81282581D01*
X135856696Y-81330200D01*
X135904315Y-81377819D01*
X135951934Y-81473057D01*
X135951934Y-81615914D01*
X135904315Y-81711152D01*
X135856696Y-81758771D01*
X135761458Y-81806390D01*
X135380505Y-81806390D01*
X136332886Y-81377819D02*
X136380505Y-81330200D01*
X136475743Y-81282581D01*
X136713839Y-81282581D01*
X136809077Y-81330200D01*
X136856696Y-81377819D01*
X136904315Y-81473057D01*
X136904315Y-81568295D01*
X136856696Y-81711152D01*
X136285267Y-82282581D01*
X136904315Y-82282581D01*
X140422334Y-82206381D02*
X140089000Y-81730190D01*
X139850905Y-82206381D02*
X139850905Y-81206381D01*
X140231858Y-81206381D01*
X140327096Y-81254000D01*
X140374715Y-81301619D01*
X140422334Y-81396857D01*
X140422334Y-81539714D01*
X140374715Y-81634952D01*
X140327096Y-81682571D01*
X140231858Y-81730190D01*
X139850905Y-81730190D01*
X140755667Y-81206381D02*
X141374715Y-81206381D01*
X141041381Y-81587333D01*
X141184239Y-81587333D01*
X141279477Y-81634952D01*
X141327096Y-81682571D01*
X141374715Y-81777810D01*
X141374715Y-82015905D01*
X141327096Y-82111143D01*
X141279477Y-82158762D01*
X141184239Y-82206381D01*
X140898524Y-82206381D01*
X140803286Y-82158762D01*
X140755667Y-82111143D01*
X148753534Y-82130181D02*
X148420200Y-81653990D01*
X148182105Y-82130181D02*
X148182105Y-81130181D01*
X148563058Y-81130181D01*
X148658296Y-81177800D01*
X148705915Y-81225419D01*
X148753534Y-81320657D01*
X148753534Y-81463514D01*
X148705915Y-81558752D01*
X148658296Y-81606371D01*
X148563058Y-81653990D01*
X148182105Y-81653990D01*
X149610677Y-81463514D02*
X149610677Y-82130181D01*
X149372581Y-81082562D02*
X149134486Y-81796848D01*
X149753534Y-81796848D01*
X129027467Y-75904762D02*
X129170324Y-75952381D01*
X129408420Y-75952381D01*
X129503658Y-75904762D01*
X129551277Y-75857143D01*
X129598896Y-75761905D01*
X129598896Y-75666667D01*
X129551277Y-75571429D01*
X129503658Y-75523810D01*
X129408420Y-75476190D01*
X129217943Y-75428571D01*
X129122705Y-75380952D01*
X129075086Y-75333333D01*
X129027467Y-75238095D01*
X129027467Y-75142857D01*
X129075086Y-75047619D01*
X129122705Y-75000000D01*
X129217943Y-74952381D01*
X129456039Y-74952381D01*
X129598896Y-75000000D01*
X129932229Y-74952381D02*
X130170324Y-75952381D01*
X130360801Y-75238095D01*
X130551277Y-75952381D01*
X130789372Y-74952381D01*
X131694134Y-75952381D02*
X131122705Y-75952381D01*
X131408419Y-75952381D02*
X131408419Y-74952381D01*
X131313181Y-75095238D01*
X131217943Y-75190476D01*
X131122705Y-75238095D01*
X143166667Y-75904762D02*
X143309524Y-75952381D01*
X143547620Y-75952381D01*
X143642858Y-75904762D01*
X143690477Y-75857143D01*
X143738096Y-75761905D01*
X143738096Y-75666667D01*
X143690477Y-75571429D01*
X143642858Y-75523810D01*
X143547620Y-75476190D01*
X143357143Y-75428571D01*
X143261905Y-75380952D01*
X143214286Y-75333333D01*
X143166667Y-75238095D01*
X143166667Y-75142857D01*
X143214286Y-75047619D01*
X143261905Y-75000000D01*
X143357143Y-74952381D01*
X143595239Y-74952381D01*
X143738096Y-75000000D01*
X144071429Y-74952381D02*
X144309524Y-75952381D01*
X144500001Y-75238095D01*
X144690477Y-75952381D01*
X144928572Y-74952381D01*
X145261905Y-75047619D02*
X145309524Y-75000000D01*
X145404762Y-74952381D01*
X145642858Y-74952381D01*
X145738096Y-75000000D01*
X145785715Y-75047619D01*
X145833334Y-75142857D01*
X145833334Y-75238095D01*
X145785715Y-75380952D01*
X145214286Y-75952381D01*
X145833334Y-75952381D01*
X150671905Y-85292381D02*
X150671905Y-84292381D01*
X151052858Y-84292381D01*
X151148096Y-84340000D01*
X151195715Y-84387619D01*
X151243334Y-84482857D01*
X151243334Y-84625714D01*
X151195715Y-84720952D01*
X151148096Y-84768571D01*
X151052858Y-84816190D01*
X150671905Y-84816190D01*
X152100477Y-84625714D02*
X152100477Y-85292381D01*
X151862381Y-84244762D02*
X151624286Y-84959048D01*
X152243334Y-84959048D01*
X150671905Y-79742381D02*
X150671905Y-78742381D01*
X151052858Y-78742381D01*
X151148096Y-78790000D01*
X151195715Y-78837619D01*
X151243334Y-78932857D01*
X151243334Y-79075714D01*
X151195715Y-79170952D01*
X151148096Y-79218571D01*
X151052858Y-79266190D01*
X150671905Y-79266190D01*
X152148096Y-78742381D02*
X151671905Y-78742381D01*
X151624286Y-79218571D01*
X151671905Y-79170952D01*
X151767143Y-79123333D01*
X152005239Y-79123333D01*
X152100477Y-79170952D01*
X152148096Y-79218571D01*
X152195715Y-79313810D01*
X152195715Y-79551905D01*
X152148096Y-79647143D01*
X152100477Y-79694762D01*
X152005239Y-79742381D01*
X151767143Y-79742381D01*
X151671905Y-79694762D01*
X151624286Y-79647143D01*
X118131905Y-75052381D02*
X118131905Y-74052381D01*
X118512858Y-74052381D01*
X118608096Y-74100000D01*
X118655715Y-74147619D01*
X118703334Y-74242857D01*
X118703334Y-74385714D01*
X118655715Y-74480952D01*
X118608096Y-74528571D01*
X118512858Y-74576190D01*
X118131905Y-74576190D01*
X119084286Y-74147619D02*
X119131905Y-74100000D01*
X119227143Y-74052381D01*
X119465239Y-74052381D01*
X119560477Y-74100000D01*
X119608096Y-74147619D01*
X119655715Y-74242857D01*
X119655715Y-74338095D01*
X119608096Y-74480952D01*
X119036667Y-75052381D01*
X119655715Y-75052381D01*
X118071905Y-81222381D02*
X118071905Y-80222381D01*
X118452858Y-80222381D01*
X118548096Y-80270000D01*
X118595715Y-80317619D01*
X118643334Y-80412857D01*
X118643334Y-80555714D01*
X118595715Y-80650952D01*
X118548096Y-80698571D01*
X118452858Y-80746190D01*
X118071905Y-80746190D01*
X119500477Y-80222381D02*
X119310000Y-80222381D01*
X119214762Y-80270000D01*
X119167143Y-80317619D01*
X119071905Y-80460476D01*
X119024286Y-80650952D01*
X119024286Y-81031905D01*
X119071905Y-81127143D01*
X119119524Y-81174762D01*
X119214762Y-81222381D01*
X119405239Y-81222381D01*
X119500477Y-81174762D01*
X119548096Y-81127143D01*
X119595715Y-81031905D01*
X119595715Y-80793810D01*
X119548096Y-80698571D01*
X119500477Y-80650952D01*
X119405239Y-80603333D01*
X119214762Y-80603333D01*
X119119524Y-80650952D01*
X119071905Y-80698571D01*
X119024286Y-80793810D01*
X118151905Y-87462381D02*
X118151905Y-86462381D01*
X118532858Y-86462381D01*
X118628096Y-86510000D01*
X118675715Y-86557619D01*
X118723334Y-86652857D01*
X118723334Y-86795714D01*
X118675715Y-86890952D01*
X118628096Y-86938571D01*
X118532858Y-86986190D01*
X118151905Y-86986190D01*
X119056667Y-86462381D02*
X119723334Y-86462381D01*
X119294762Y-87462381D01*
M02*
