G04 #@! TF.FileFunction,Copper,L2,Bot,Signal*
%FSLAX46Y46*%
G04 Gerber Fmt 4.6, Leading zero omitted, Abs format (unit mm)*
G04 Created by KiCad (PCBNEW 4.0.1-stable) date 8/1/2017 2:14:50 AM*
%MOMM*%
G01*
G04 APERTURE LIST*
%ADD10C,0.100000*%
%ADD11C,3.500000*%
%ADD12C,1.524000*%
%ADD13C,1.778000*%
%ADD14R,2.235200X2.235200*%
%ADD15C,0.508000*%
%ADD16C,0.254000*%
%ADD17C,0.152400*%
G04 APERTURE END LIST*
D10*
D11*
X120000000Y-71000000D03*
X120000000Y-95000000D03*
X155000000Y-71000000D03*
X155000000Y-95000000D03*
D12*
X133400800Y-70000000D03*
X128320800Y-70000000D03*
D13*
X134710800Y-72540000D03*
X127010800Y-72540000D03*
D12*
X147540000Y-70000000D03*
X142460000Y-70000000D03*
D13*
X148850000Y-72540000D03*
X141150000Y-72540000D03*
D14*
X130700000Y-85000000D03*
X143470000Y-85000000D03*
X154280000Y-85000000D03*
X154280000Y-79130000D03*
X118920000Y-77280000D03*
X118890000Y-83290000D03*
X118810000Y-89490000D03*
X133270000Y-92980000D03*
X144510000Y-92930000D03*
D15*
X133290000Y-76980000D03*
X136190000Y-77000000D03*
X148880000Y-77190000D03*
X145700000Y-76980000D03*
D16*
X136180000Y-77010000D02*
X136180000Y-77030000D01*
X136190000Y-77000000D02*
X136180000Y-77010000D01*
D17*
G36*
X118022315Y-69676055D02*
X117666206Y-70533662D01*
X117665395Y-71462264D01*
X118020007Y-72320491D01*
X118676055Y-72977685D01*
X119533662Y-73333794D01*
X120462264Y-73334605D01*
X121320491Y-72979993D01*
X121468990Y-72831752D01*
X125537345Y-72831752D01*
X125761153Y-73373411D01*
X126175209Y-73788190D01*
X126716477Y-74012944D01*
X127302552Y-74013455D01*
X127844211Y-73789647D01*
X128258990Y-73375591D01*
X128483744Y-72834323D01*
X128483746Y-72831752D01*
X133237345Y-72831752D01*
X133461153Y-73373411D01*
X133875209Y-73788190D01*
X134416477Y-74012944D01*
X135002552Y-74013455D01*
X135544211Y-73789647D01*
X135958990Y-73375591D01*
X136183744Y-72834323D01*
X136183746Y-72831752D01*
X139676545Y-72831752D01*
X139900353Y-73373411D01*
X140314409Y-73788190D01*
X140855677Y-74012944D01*
X141441752Y-74013455D01*
X141983411Y-73789647D01*
X142398190Y-73375591D01*
X142622944Y-72834323D01*
X142622946Y-72831752D01*
X147376545Y-72831752D01*
X147600353Y-73373411D01*
X148014409Y-73788190D01*
X148555677Y-74012944D01*
X149141752Y-74013455D01*
X149683411Y-73789647D01*
X150098190Y-73375591D01*
X150322944Y-72834323D01*
X150323455Y-72248248D01*
X150099647Y-71706589D01*
X149685591Y-71291810D01*
X149144323Y-71067056D01*
X148558248Y-71066545D01*
X148016589Y-71290353D01*
X147601810Y-71704409D01*
X147377056Y-72245677D01*
X147376545Y-72831752D01*
X142622946Y-72831752D01*
X142623455Y-72248248D01*
X142399647Y-71706589D01*
X141985591Y-71291810D01*
X141444323Y-71067056D01*
X140858248Y-71066545D01*
X140316589Y-71290353D01*
X139901810Y-71704409D01*
X139677056Y-72245677D01*
X139676545Y-72831752D01*
X136183746Y-72831752D01*
X136184255Y-72248248D01*
X135960447Y-71706589D01*
X135546391Y-71291810D01*
X135005123Y-71067056D01*
X134419048Y-71066545D01*
X133877389Y-71290353D01*
X133462610Y-71704409D01*
X133237856Y-72245677D01*
X133237345Y-72831752D01*
X128483746Y-72831752D01*
X128484255Y-72248248D01*
X128260447Y-71706589D01*
X127846391Y-71291810D01*
X127305123Y-71067056D01*
X126719048Y-71066545D01*
X126177389Y-71290353D01*
X125762610Y-71704409D01*
X125537856Y-72245677D01*
X125537345Y-72831752D01*
X121468990Y-72831752D01*
X121977685Y-72323945D01*
X122333794Y-71466338D01*
X122334605Y-70537736D01*
X121979993Y-69679509D01*
X121377736Y-69076200D01*
X127340735Y-69076200D01*
X127180212Y-69236443D01*
X126974834Y-69731049D01*
X126974366Y-70266601D01*
X127178881Y-70761565D01*
X127557243Y-71140588D01*
X128051849Y-71345966D01*
X128587401Y-71346434D01*
X129082365Y-71141919D01*
X129366890Y-70857890D01*
X132794357Y-70857890D01*
X132883068Y-71015088D01*
X133310936Y-71135947D01*
X133752484Y-71083867D01*
X133918532Y-71015088D01*
X134007243Y-70857890D01*
X133400800Y-70251447D01*
X132794357Y-70857890D01*
X129366890Y-70857890D01*
X129461388Y-70763557D01*
X129666766Y-70268951D01*
X129667079Y-69910136D01*
X132264853Y-69910136D01*
X132316933Y-70351684D01*
X132385712Y-70517732D01*
X132542910Y-70606443D01*
X133149353Y-70000000D01*
X133652247Y-70000000D01*
X134258690Y-70606443D01*
X134415888Y-70517732D01*
X134536747Y-70089864D01*
X134484667Y-69648316D01*
X134415888Y-69482268D01*
X134258690Y-69393557D01*
X133652247Y-70000000D01*
X133149353Y-70000000D01*
X132542910Y-69393557D01*
X132385712Y-69482268D01*
X132264853Y-69910136D01*
X129667079Y-69910136D01*
X129667234Y-69733399D01*
X129462719Y-69238435D01*
X129300767Y-69076200D01*
X132831552Y-69076200D01*
X132794357Y-69142110D01*
X133400800Y-69748553D01*
X134007243Y-69142110D01*
X133970048Y-69076200D01*
X141479935Y-69076200D01*
X141319412Y-69236443D01*
X141114034Y-69731049D01*
X141113566Y-70266601D01*
X141318081Y-70761565D01*
X141696443Y-71140588D01*
X142191049Y-71345966D01*
X142726601Y-71346434D01*
X143221565Y-71141919D01*
X143506090Y-70857890D01*
X146933557Y-70857890D01*
X147022268Y-71015088D01*
X147450136Y-71135947D01*
X147891684Y-71083867D01*
X148057732Y-71015088D01*
X148146443Y-70857890D01*
X147540000Y-70251447D01*
X146933557Y-70857890D01*
X143506090Y-70857890D01*
X143600588Y-70763557D01*
X143805966Y-70268951D01*
X143806279Y-69910136D01*
X146404053Y-69910136D01*
X146456133Y-70351684D01*
X146524912Y-70517732D01*
X146682110Y-70606443D01*
X147288553Y-70000000D01*
X147791447Y-70000000D01*
X148397890Y-70606443D01*
X148555088Y-70517732D01*
X148675947Y-70089864D01*
X148623867Y-69648316D01*
X148555088Y-69482268D01*
X148397890Y-69393557D01*
X147791447Y-70000000D01*
X147288553Y-70000000D01*
X146682110Y-69393557D01*
X146524912Y-69482268D01*
X146404053Y-69910136D01*
X143806279Y-69910136D01*
X143806434Y-69733399D01*
X143601919Y-69238435D01*
X143439967Y-69076200D01*
X146970752Y-69076200D01*
X146933557Y-69142110D01*
X147540000Y-69748553D01*
X148146443Y-69142110D01*
X148109248Y-69076200D01*
X153623218Y-69076200D01*
X153022315Y-69676055D01*
X152666206Y-70533662D01*
X152665395Y-71462264D01*
X153020007Y-72320491D01*
X153676055Y-72977685D01*
X154533662Y-73333794D01*
X155462264Y-73334605D01*
X156320491Y-72979993D01*
X156923800Y-72377736D01*
X156923800Y-93623218D01*
X156323945Y-93022315D01*
X155466338Y-92666206D01*
X154537736Y-92665395D01*
X153679509Y-93020007D01*
X153022315Y-93676055D01*
X152666206Y-94533662D01*
X152665395Y-95462264D01*
X153020007Y-96320491D01*
X153622264Y-96923800D01*
X121376782Y-96923800D01*
X121977685Y-96323945D01*
X122333794Y-95466338D01*
X122334605Y-94537736D01*
X121979993Y-93679509D01*
X121547939Y-93246700D01*
X131796800Y-93246700D01*
X131796800Y-94168333D01*
X131850937Y-94299031D01*
X131950969Y-94399063D01*
X132081667Y-94453200D01*
X133003300Y-94453200D01*
X133092200Y-94364300D01*
X133092200Y-93157800D01*
X133447800Y-93157800D01*
X133447800Y-94364300D01*
X133536700Y-94453200D01*
X134458333Y-94453200D01*
X134589031Y-94399063D01*
X134689063Y-94299031D01*
X134743200Y-94168333D01*
X134743200Y-93246700D01*
X134693200Y-93196700D01*
X143036800Y-93196700D01*
X143036800Y-94118333D01*
X143090937Y-94249031D01*
X143190969Y-94349063D01*
X143321667Y-94403200D01*
X144243300Y-94403200D01*
X144332200Y-94314300D01*
X144332200Y-93107800D01*
X144687800Y-93107800D01*
X144687800Y-94314300D01*
X144776700Y-94403200D01*
X145698333Y-94403200D01*
X145829031Y-94349063D01*
X145929063Y-94249031D01*
X145983200Y-94118333D01*
X145983200Y-93196700D01*
X145894300Y-93107800D01*
X144687800Y-93107800D01*
X144332200Y-93107800D01*
X143125700Y-93107800D01*
X143036800Y-93196700D01*
X134693200Y-93196700D01*
X134654300Y-93157800D01*
X133447800Y-93157800D01*
X133092200Y-93157800D01*
X131885700Y-93157800D01*
X131796800Y-93246700D01*
X121547939Y-93246700D01*
X121323945Y-93022315D01*
X120466338Y-92666206D01*
X119537736Y-92665395D01*
X118679509Y-93020007D01*
X118022315Y-93676055D01*
X117666206Y-94533662D01*
X117665395Y-95462264D01*
X118020007Y-96320491D01*
X118622264Y-96923800D01*
X117076200Y-96923800D01*
X117076200Y-91791667D01*
X131796800Y-91791667D01*
X131796800Y-92713300D01*
X131885700Y-92802200D01*
X133092200Y-92802200D01*
X133092200Y-91595700D01*
X133447800Y-91595700D01*
X133447800Y-92802200D01*
X134654300Y-92802200D01*
X134743200Y-92713300D01*
X134743200Y-91791667D01*
X134722490Y-91741667D01*
X143036800Y-91741667D01*
X143036800Y-92663300D01*
X143125700Y-92752200D01*
X144332200Y-92752200D01*
X144332200Y-91545700D01*
X144687800Y-91545700D01*
X144687800Y-92752200D01*
X145894300Y-92752200D01*
X145983200Y-92663300D01*
X145983200Y-91741667D01*
X145929063Y-91610969D01*
X145829031Y-91510937D01*
X145698333Y-91456800D01*
X144776700Y-91456800D01*
X144687800Y-91545700D01*
X144332200Y-91545700D01*
X144243300Y-91456800D01*
X143321667Y-91456800D01*
X143190969Y-91510937D01*
X143090937Y-91610969D01*
X143036800Y-91741667D01*
X134722490Y-91741667D01*
X134689063Y-91660969D01*
X134589031Y-91560937D01*
X134458333Y-91506800D01*
X133536700Y-91506800D01*
X133447800Y-91595700D01*
X133092200Y-91595700D01*
X133003300Y-91506800D01*
X132081667Y-91506800D01*
X131950969Y-91560937D01*
X131850937Y-91660969D01*
X131796800Y-91791667D01*
X117076200Y-91791667D01*
X117076200Y-89756700D01*
X117336800Y-89756700D01*
X117336800Y-90678333D01*
X117390937Y-90809031D01*
X117490969Y-90909063D01*
X117621667Y-90963200D01*
X118543300Y-90963200D01*
X118632200Y-90874300D01*
X118632200Y-89667800D01*
X118987800Y-89667800D01*
X118987800Y-90874300D01*
X119076700Y-90963200D01*
X119998333Y-90963200D01*
X120129031Y-90909063D01*
X120229063Y-90809031D01*
X120283200Y-90678333D01*
X120283200Y-89756700D01*
X120194300Y-89667800D01*
X118987800Y-89667800D01*
X118632200Y-89667800D01*
X117425700Y-89667800D01*
X117336800Y-89756700D01*
X117076200Y-89756700D01*
X117076200Y-88301667D01*
X117336800Y-88301667D01*
X117336800Y-89223300D01*
X117425700Y-89312200D01*
X118632200Y-89312200D01*
X118632200Y-88105700D01*
X118987800Y-88105700D01*
X118987800Y-89312200D01*
X120194300Y-89312200D01*
X120283200Y-89223300D01*
X120283200Y-88301667D01*
X120229063Y-88170969D01*
X120129031Y-88070937D01*
X119998333Y-88016800D01*
X119076700Y-88016800D01*
X118987800Y-88105700D01*
X118632200Y-88105700D01*
X118543300Y-88016800D01*
X117621667Y-88016800D01*
X117490969Y-88070937D01*
X117390937Y-88170969D01*
X117336800Y-88301667D01*
X117076200Y-88301667D01*
X117076200Y-82172400D01*
X117176755Y-82172400D01*
X117176755Y-84407600D01*
X117217491Y-84624092D01*
X117345437Y-84822926D01*
X117540661Y-84956317D01*
X117772400Y-85003245D01*
X120007600Y-85003245D01*
X120224092Y-84962509D01*
X120422926Y-84834563D01*
X120556317Y-84639339D01*
X120603245Y-84407600D01*
X120603245Y-83882400D01*
X128986755Y-83882400D01*
X128986755Y-86117600D01*
X129027491Y-86334092D01*
X129155437Y-86532926D01*
X129350661Y-86666317D01*
X129582400Y-86713245D01*
X131817600Y-86713245D01*
X132034092Y-86672509D01*
X132232926Y-86544563D01*
X132366317Y-86349339D01*
X132413245Y-86117600D01*
X132413245Y-83882400D01*
X141756755Y-83882400D01*
X141756755Y-86117600D01*
X141797491Y-86334092D01*
X141925437Y-86532926D01*
X142120661Y-86666317D01*
X142352400Y-86713245D01*
X144587600Y-86713245D01*
X144804092Y-86672509D01*
X145002926Y-86544563D01*
X145136317Y-86349339D01*
X145183245Y-86117600D01*
X145183245Y-83882400D01*
X152566755Y-83882400D01*
X152566755Y-86117600D01*
X152607491Y-86334092D01*
X152735437Y-86532926D01*
X152930661Y-86666317D01*
X153162400Y-86713245D01*
X155397600Y-86713245D01*
X155614092Y-86672509D01*
X155812926Y-86544563D01*
X155946317Y-86349339D01*
X155993245Y-86117600D01*
X155993245Y-83882400D01*
X155952509Y-83665908D01*
X155824563Y-83467074D01*
X155629339Y-83333683D01*
X155397600Y-83286755D01*
X153162400Y-83286755D01*
X152945908Y-83327491D01*
X152747074Y-83455437D01*
X152613683Y-83650661D01*
X152566755Y-83882400D01*
X145183245Y-83882400D01*
X145142509Y-83665908D01*
X145014563Y-83467074D01*
X144819339Y-83333683D01*
X144587600Y-83286755D01*
X142352400Y-83286755D01*
X142135908Y-83327491D01*
X141937074Y-83455437D01*
X141803683Y-83650661D01*
X141756755Y-83882400D01*
X132413245Y-83882400D01*
X132372509Y-83665908D01*
X132244563Y-83467074D01*
X132049339Y-83333683D01*
X131817600Y-83286755D01*
X129582400Y-83286755D01*
X129365908Y-83327491D01*
X129167074Y-83455437D01*
X129033683Y-83650661D01*
X128986755Y-83882400D01*
X120603245Y-83882400D01*
X120603245Y-82172400D01*
X120562509Y-81955908D01*
X120434563Y-81757074D01*
X120239339Y-81623683D01*
X120007600Y-81576755D01*
X117772400Y-81576755D01*
X117555908Y-81617491D01*
X117357074Y-81745437D01*
X117223683Y-81940661D01*
X117176755Y-82172400D01*
X117076200Y-82172400D01*
X117076200Y-76162400D01*
X117206755Y-76162400D01*
X117206755Y-78397600D01*
X117247491Y-78614092D01*
X117375437Y-78812926D01*
X117570661Y-78946317D01*
X117802400Y-78993245D01*
X120037600Y-78993245D01*
X120254092Y-78952509D01*
X120452926Y-78824563D01*
X120586317Y-78629339D01*
X120633245Y-78397600D01*
X120633245Y-78012400D01*
X152566755Y-78012400D01*
X152566755Y-80247600D01*
X152607491Y-80464092D01*
X152735437Y-80662926D01*
X152930661Y-80796317D01*
X153162400Y-80843245D01*
X155397600Y-80843245D01*
X155614092Y-80802509D01*
X155812926Y-80674563D01*
X155946317Y-80479339D01*
X155993245Y-80247600D01*
X155993245Y-78012400D01*
X155952509Y-77795908D01*
X155824563Y-77597074D01*
X155629339Y-77463683D01*
X155397600Y-77416755D01*
X153162400Y-77416755D01*
X152945908Y-77457491D01*
X152747074Y-77585437D01*
X152613683Y-77780661D01*
X152566755Y-78012400D01*
X120633245Y-78012400D01*
X120633245Y-76162400D01*
X120592509Y-75945908D01*
X120464563Y-75747074D01*
X120269339Y-75613683D01*
X120037600Y-75566755D01*
X117802400Y-75566755D01*
X117585908Y-75607491D01*
X117387074Y-75735437D01*
X117253683Y-75930661D01*
X117206755Y-76162400D01*
X117076200Y-76162400D01*
X117076200Y-69076200D01*
X118623218Y-69076200D01*
X118022315Y-69676055D01*
X118022315Y-69676055D01*
G37*
X118022315Y-69676055D02*
X117666206Y-70533662D01*
X117665395Y-71462264D01*
X118020007Y-72320491D01*
X118676055Y-72977685D01*
X119533662Y-73333794D01*
X120462264Y-73334605D01*
X121320491Y-72979993D01*
X121468990Y-72831752D01*
X125537345Y-72831752D01*
X125761153Y-73373411D01*
X126175209Y-73788190D01*
X126716477Y-74012944D01*
X127302552Y-74013455D01*
X127844211Y-73789647D01*
X128258990Y-73375591D01*
X128483744Y-72834323D01*
X128483746Y-72831752D01*
X133237345Y-72831752D01*
X133461153Y-73373411D01*
X133875209Y-73788190D01*
X134416477Y-74012944D01*
X135002552Y-74013455D01*
X135544211Y-73789647D01*
X135958990Y-73375591D01*
X136183744Y-72834323D01*
X136183746Y-72831752D01*
X139676545Y-72831752D01*
X139900353Y-73373411D01*
X140314409Y-73788190D01*
X140855677Y-74012944D01*
X141441752Y-74013455D01*
X141983411Y-73789647D01*
X142398190Y-73375591D01*
X142622944Y-72834323D01*
X142622946Y-72831752D01*
X147376545Y-72831752D01*
X147600353Y-73373411D01*
X148014409Y-73788190D01*
X148555677Y-74012944D01*
X149141752Y-74013455D01*
X149683411Y-73789647D01*
X150098190Y-73375591D01*
X150322944Y-72834323D01*
X150323455Y-72248248D01*
X150099647Y-71706589D01*
X149685591Y-71291810D01*
X149144323Y-71067056D01*
X148558248Y-71066545D01*
X148016589Y-71290353D01*
X147601810Y-71704409D01*
X147377056Y-72245677D01*
X147376545Y-72831752D01*
X142622946Y-72831752D01*
X142623455Y-72248248D01*
X142399647Y-71706589D01*
X141985591Y-71291810D01*
X141444323Y-71067056D01*
X140858248Y-71066545D01*
X140316589Y-71290353D01*
X139901810Y-71704409D01*
X139677056Y-72245677D01*
X139676545Y-72831752D01*
X136183746Y-72831752D01*
X136184255Y-72248248D01*
X135960447Y-71706589D01*
X135546391Y-71291810D01*
X135005123Y-71067056D01*
X134419048Y-71066545D01*
X133877389Y-71290353D01*
X133462610Y-71704409D01*
X133237856Y-72245677D01*
X133237345Y-72831752D01*
X128483746Y-72831752D01*
X128484255Y-72248248D01*
X128260447Y-71706589D01*
X127846391Y-71291810D01*
X127305123Y-71067056D01*
X126719048Y-71066545D01*
X126177389Y-71290353D01*
X125762610Y-71704409D01*
X125537856Y-72245677D01*
X125537345Y-72831752D01*
X121468990Y-72831752D01*
X121977685Y-72323945D01*
X122333794Y-71466338D01*
X122334605Y-70537736D01*
X121979993Y-69679509D01*
X121377736Y-69076200D01*
X127340735Y-69076200D01*
X127180212Y-69236443D01*
X126974834Y-69731049D01*
X126974366Y-70266601D01*
X127178881Y-70761565D01*
X127557243Y-71140588D01*
X128051849Y-71345966D01*
X128587401Y-71346434D01*
X129082365Y-71141919D01*
X129366890Y-70857890D01*
X132794357Y-70857890D01*
X132883068Y-71015088D01*
X133310936Y-71135947D01*
X133752484Y-71083867D01*
X133918532Y-71015088D01*
X134007243Y-70857890D01*
X133400800Y-70251447D01*
X132794357Y-70857890D01*
X129366890Y-70857890D01*
X129461388Y-70763557D01*
X129666766Y-70268951D01*
X129667079Y-69910136D01*
X132264853Y-69910136D01*
X132316933Y-70351684D01*
X132385712Y-70517732D01*
X132542910Y-70606443D01*
X133149353Y-70000000D01*
X133652247Y-70000000D01*
X134258690Y-70606443D01*
X134415888Y-70517732D01*
X134536747Y-70089864D01*
X134484667Y-69648316D01*
X134415888Y-69482268D01*
X134258690Y-69393557D01*
X133652247Y-70000000D01*
X133149353Y-70000000D01*
X132542910Y-69393557D01*
X132385712Y-69482268D01*
X132264853Y-69910136D01*
X129667079Y-69910136D01*
X129667234Y-69733399D01*
X129462719Y-69238435D01*
X129300767Y-69076200D01*
X132831552Y-69076200D01*
X132794357Y-69142110D01*
X133400800Y-69748553D01*
X134007243Y-69142110D01*
X133970048Y-69076200D01*
X141479935Y-69076200D01*
X141319412Y-69236443D01*
X141114034Y-69731049D01*
X141113566Y-70266601D01*
X141318081Y-70761565D01*
X141696443Y-71140588D01*
X142191049Y-71345966D01*
X142726601Y-71346434D01*
X143221565Y-71141919D01*
X143506090Y-70857890D01*
X146933557Y-70857890D01*
X147022268Y-71015088D01*
X147450136Y-71135947D01*
X147891684Y-71083867D01*
X148057732Y-71015088D01*
X148146443Y-70857890D01*
X147540000Y-70251447D01*
X146933557Y-70857890D01*
X143506090Y-70857890D01*
X143600588Y-70763557D01*
X143805966Y-70268951D01*
X143806279Y-69910136D01*
X146404053Y-69910136D01*
X146456133Y-70351684D01*
X146524912Y-70517732D01*
X146682110Y-70606443D01*
X147288553Y-70000000D01*
X147791447Y-70000000D01*
X148397890Y-70606443D01*
X148555088Y-70517732D01*
X148675947Y-70089864D01*
X148623867Y-69648316D01*
X148555088Y-69482268D01*
X148397890Y-69393557D01*
X147791447Y-70000000D01*
X147288553Y-70000000D01*
X146682110Y-69393557D01*
X146524912Y-69482268D01*
X146404053Y-69910136D01*
X143806279Y-69910136D01*
X143806434Y-69733399D01*
X143601919Y-69238435D01*
X143439967Y-69076200D01*
X146970752Y-69076200D01*
X146933557Y-69142110D01*
X147540000Y-69748553D01*
X148146443Y-69142110D01*
X148109248Y-69076200D01*
X153623218Y-69076200D01*
X153022315Y-69676055D01*
X152666206Y-70533662D01*
X152665395Y-71462264D01*
X153020007Y-72320491D01*
X153676055Y-72977685D01*
X154533662Y-73333794D01*
X155462264Y-73334605D01*
X156320491Y-72979993D01*
X156923800Y-72377736D01*
X156923800Y-93623218D01*
X156323945Y-93022315D01*
X155466338Y-92666206D01*
X154537736Y-92665395D01*
X153679509Y-93020007D01*
X153022315Y-93676055D01*
X152666206Y-94533662D01*
X152665395Y-95462264D01*
X153020007Y-96320491D01*
X153622264Y-96923800D01*
X121376782Y-96923800D01*
X121977685Y-96323945D01*
X122333794Y-95466338D01*
X122334605Y-94537736D01*
X121979993Y-93679509D01*
X121547939Y-93246700D01*
X131796800Y-93246700D01*
X131796800Y-94168333D01*
X131850937Y-94299031D01*
X131950969Y-94399063D01*
X132081667Y-94453200D01*
X133003300Y-94453200D01*
X133092200Y-94364300D01*
X133092200Y-93157800D01*
X133447800Y-93157800D01*
X133447800Y-94364300D01*
X133536700Y-94453200D01*
X134458333Y-94453200D01*
X134589031Y-94399063D01*
X134689063Y-94299031D01*
X134743200Y-94168333D01*
X134743200Y-93246700D01*
X134693200Y-93196700D01*
X143036800Y-93196700D01*
X143036800Y-94118333D01*
X143090937Y-94249031D01*
X143190969Y-94349063D01*
X143321667Y-94403200D01*
X144243300Y-94403200D01*
X144332200Y-94314300D01*
X144332200Y-93107800D01*
X144687800Y-93107800D01*
X144687800Y-94314300D01*
X144776700Y-94403200D01*
X145698333Y-94403200D01*
X145829031Y-94349063D01*
X145929063Y-94249031D01*
X145983200Y-94118333D01*
X145983200Y-93196700D01*
X145894300Y-93107800D01*
X144687800Y-93107800D01*
X144332200Y-93107800D01*
X143125700Y-93107800D01*
X143036800Y-93196700D01*
X134693200Y-93196700D01*
X134654300Y-93157800D01*
X133447800Y-93157800D01*
X133092200Y-93157800D01*
X131885700Y-93157800D01*
X131796800Y-93246700D01*
X121547939Y-93246700D01*
X121323945Y-93022315D01*
X120466338Y-92666206D01*
X119537736Y-92665395D01*
X118679509Y-93020007D01*
X118022315Y-93676055D01*
X117666206Y-94533662D01*
X117665395Y-95462264D01*
X118020007Y-96320491D01*
X118622264Y-96923800D01*
X117076200Y-96923800D01*
X117076200Y-91791667D01*
X131796800Y-91791667D01*
X131796800Y-92713300D01*
X131885700Y-92802200D01*
X133092200Y-92802200D01*
X133092200Y-91595700D01*
X133447800Y-91595700D01*
X133447800Y-92802200D01*
X134654300Y-92802200D01*
X134743200Y-92713300D01*
X134743200Y-91791667D01*
X134722490Y-91741667D01*
X143036800Y-91741667D01*
X143036800Y-92663300D01*
X143125700Y-92752200D01*
X144332200Y-92752200D01*
X144332200Y-91545700D01*
X144687800Y-91545700D01*
X144687800Y-92752200D01*
X145894300Y-92752200D01*
X145983200Y-92663300D01*
X145983200Y-91741667D01*
X145929063Y-91610969D01*
X145829031Y-91510937D01*
X145698333Y-91456800D01*
X144776700Y-91456800D01*
X144687800Y-91545700D01*
X144332200Y-91545700D01*
X144243300Y-91456800D01*
X143321667Y-91456800D01*
X143190969Y-91510937D01*
X143090937Y-91610969D01*
X143036800Y-91741667D01*
X134722490Y-91741667D01*
X134689063Y-91660969D01*
X134589031Y-91560937D01*
X134458333Y-91506800D01*
X133536700Y-91506800D01*
X133447800Y-91595700D01*
X133092200Y-91595700D01*
X133003300Y-91506800D01*
X132081667Y-91506800D01*
X131950969Y-91560937D01*
X131850937Y-91660969D01*
X131796800Y-91791667D01*
X117076200Y-91791667D01*
X117076200Y-89756700D01*
X117336800Y-89756700D01*
X117336800Y-90678333D01*
X117390937Y-90809031D01*
X117490969Y-90909063D01*
X117621667Y-90963200D01*
X118543300Y-90963200D01*
X118632200Y-90874300D01*
X118632200Y-89667800D01*
X118987800Y-89667800D01*
X118987800Y-90874300D01*
X119076700Y-90963200D01*
X119998333Y-90963200D01*
X120129031Y-90909063D01*
X120229063Y-90809031D01*
X120283200Y-90678333D01*
X120283200Y-89756700D01*
X120194300Y-89667800D01*
X118987800Y-89667800D01*
X118632200Y-89667800D01*
X117425700Y-89667800D01*
X117336800Y-89756700D01*
X117076200Y-89756700D01*
X117076200Y-88301667D01*
X117336800Y-88301667D01*
X117336800Y-89223300D01*
X117425700Y-89312200D01*
X118632200Y-89312200D01*
X118632200Y-88105700D01*
X118987800Y-88105700D01*
X118987800Y-89312200D01*
X120194300Y-89312200D01*
X120283200Y-89223300D01*
X120283200Y-88301667D01*
X120229063Y-88170969D01*
X120129031Y-88070937D01*
X119998333Y-88016800D01*
X119076700Y-88016800D01*
X118987800Y-88105700D01*
X118632200Y-88105700D01*
X118543300Y-88016800D01*
X117621667Y-88016800D01*
X117490969Y-88070937D01*
X117390937Y-88170969D01*
X117336800Y-88301667D01*
X117076200Y-88301667D01*
X117076200Y-82172400D01*
X117176755Y-82172400D01*
X117176755Y-84407600D01*
X117217491Y-84624092D01*
X117345437Y-84822926D01*
X117540661Y-84956317D01*
X117772400Y-85003245D01*
X120007600Y-85003245D01*
X120224092Y-84962509D01*
X120422926Y-84834563D01*
X120556317Y-84639339D01*
X120603245Y-84407600D01*
X120603245Y-83882400D01*
X128986755Y-83882400D01*
X128986755Y-86117600D01*
X129027491Y-86334092D01*
X129155437Y-86532926D01*
X129350661Y-86666317D01*
X129582400Y-86713245D01*
X131817600Y-86713245D01*
X132034092Y-86672509D01*
X132232926Y-86544563D01*
X132366317Y-86349339D01*
X132413245Y-86117600D01*
X132413245Y-83882400D01*
X141756755Y-83882400D01*
X141756755Y-86117600D01*
X141797491Y-86334092D01*
X141925437Y-86532926D01*
X142120661Y-86666317D01*
X142352400Y-86713245D01*
X144587600Y-86713245D01*
X144804092Y-86672509D01*
X145002926Y-86544563D01*
X145136317Y-86349339D01*
X145183245Y-86117600D01*
X145183245Y-83882400D01*
X152566755Y-83882400D01*
X152566755Y-86117600D01*
X152607491Y-86334092D01*
X152735437Y-86532926D01*
X152930661Y-86666317D01*
X153162400Y-86713245D01*
X155397600Y-86713245D01*
X155614092Y-86672509D01*
X155812926Y-86544563D01*
X155946317Y-86349339D01*
X155993245Y-86117600D01*
X155993245Y-83882400D01*
X155952509Y-83665908D01*
X155824563Y-83467074D01*
X155629339Y-83333683D01*
X155397600Y-83286755D01*
X153162400Y-83286755D01*
X152945908Y-83327491D01*
X152747074Y-83455437D01*
X152613683Y-83650661D01*
X152566755Y-83882400D01*
X145183245Y-83882400D01*
X145142509Y-83665908D01*
X145014563Y-83467074D01*
X144819339Y-83333683D01*
X144587600Y-83286755D01*
X142352400Y-83286755D01*
X142135908Y-83327491D01*
X141937074Y-83455437D01*
X141803683Y-83650661D01*
X141756755Y-83882400D01*
X132413245Y-83882400D01*
X132372509Y-83665908D01*
X132244563Y-83467074D01*
X132049339Y-83333683D01*
X131817600Y-83286755D01*
X129582400Y-83286755D01*
X129365908Y-83327491D01*
X129167074Y-83455437D01*
X129033683Y-83650661D01*
X128986755Y-83882400D01*
X120603245Y-83882400D01*
X120603245Y-82172400D01*
X120562509Y-81955908D01*
X120434563Y-81757074D01*
X120239339Y-81623683D01*
X120007600Y-81576755D01*
X117772400Y-81576755D01*
X117555908Y-81617491D01*
X117357074Y-81745437D01*
X117223683Y-81940661D01*
X117176755Y-82172400D01*
X117076200Y-82172400D01*
X117076200Y-76162400D01*
X117206755Y-76162400D01*
X117206755Y-78397600D01*
X117247491Y-78614092D01*
X117375437Y-78812926D01*
X117570661Y-78946317D01*
X117802400Y-78993245D01*
X120037600Y-78993245D01*
X120254092Y-78952509D01*
X120452926Y-78824563D01*
X120586317Y-78629339D01*
X120633245Y-78397600D01*
X120633245Y-78012400D01*
X152566755Y-78012400D01*
X152566755Y-80247600D01*
X152607491Y-80464092D01*
X152735437Y-80662926D01*
X152930661Y-80796317D01*
X153162400Y-80843245D01*
X155397600Y-80843245D01*
X155614092Y-80802509D01*
X155812926Y-80674563D01*
X155946317Y-80479339D01*
X155993245Y-80247600D01*
X155993245Y-78012400D01*
X155952509Y-77795908D01*
X155824563Y-77597074D01*
X155629339Y-77463683D01*
X155397600Y-77416755D01*
X153162400Y-77416755D01*
X152945908Y-77457491D01*
X152747074Y-77585437D01*
X152613683Y-77780661D01*
X152566755Y-78012400D01*
X120633245Y-78012400D01*
X120633245Y-76162400D01*
X120592509Y-75945908D01*
X120464563Y-75747074D01*
X120269339Y-75613683D01*
X120037600Y-75566755D01*
X117802400Y-75566755D01*
X117585908Y-75607491D01*
X117387074Y-75735437D01*
X117253683Y-75930661D01*
X117206755Y-76162400D01*
X117076200Y-76162400D01*
X117076200Y-69076200D01*
X118623218Y-69076200D01*
X118022315Y-69676055D01*
M02*
