M48
;DRILL file {KiCad 4.0.1-stable} date 8/1/2017 2:13:24 AM
;FORMAT={-:-/ absolute / inch / decimal}
FMAT,2
INCH,TZ
T1C0.010
T2C0.035
T3C0.040
T4C0.043
T5C0.108
%
G90
G05
M72
T1
X5.2476Y-3.0307
X5.3618Y-3.0315
X5.7362Y-3.0307
X5.8614Y-3.039
T2
X5.052Y-2.7559
X5.252Y-2.7559
X5.6087Y-2.7559
X5.8087Y-2.7559
T3
X4.6776Y-3.5232
X4.6807Y-3.2791
X4.6819Y-3.0425
X5.1457Y-3.3465
X5.2469Y-3.6606
X5.6484Y-3.3465
X5.6894Y-3.6587
X6.074Y-3.1154
X6.074Y-3.3465
T4
X5.0004Y-2.8559
X5.3036Y-2.8559
X5.5571Y-2.8559
X5.8602Y-2.8559
T5
X4.7244Y-2.7953
X4.7244Y-3.7402
X6.1024Y-2.7953
X6.1024Y-3.7402
T0
M30
