G04 #@! TF.FileFunction,Copper,L1,Top,Signal*
%FSLAX46Y46*%
G04 Gerber Fmt 4.6, Leading zero omitted, Abs format (unit mm)*
G04 Created by KiCad (PCBNEW 4.0.1-stable) date 8/1/2017 2:14:50 AM*
%MOMM*%
G01*
G04 APERTURE LIST*
%ADD10C,0.100000*%
%ADD11C,3.500000*%
%ADD12R,1.000000X0.700000*%
%ADD13R,1.300000X0.700000*%
%ADD14C,1.524000*%
%ADD15C,1.778000*%
%ADD16R,2.235200X2.235200*%
%ADD17C,0.508000*%
%ADD18C,0.254000*%
G04 APERTURE END LIST*
D10*
D11*
X120000000Y-71000000D03*
X120000000Y-95000000D03*
X155000000Y-71000000D03*
X155000000Y-95000000D03*
D12*
X130886200Y-79112400D03*
X133286200Y-80062400D03*
X133286200Y-78162400D03*
X143306800Y-79163200D03*
X145706800Y-80113200D03*
X145706800Y-78213200D03*
D13*
X128016000Y-78137000D03*
X128016000Y-80037000D03*
X136194800Y-78162400D03*
X136194800Y-80062400D03*
X140639800Y-78162400D03*
X140639800Y-80062400D03*
X148894800Y-78162400D03*
X148894800Y-80062400D03*
D14*
X133400800Y-70000000D03*
X128320800Y-70000000D03*
D15*
X134710800Y-72540000D03*
X127010800Y-72540000D03*
D14*
X147540000Y-70000000D03*
X142460000Y-70000000D03*
D15*
X148850000Y-72540000D03*
X141150000Y-72540000D03*
D16*
X130700000Y-85000000D03*
X143470000Y-85000000D03*
X154280000Y-85000000D03*
X154280000Y-79130000D03*
X118920000Y-77280000D03*
X118890000Y-83290000D03*
X118810000Y-89490000D03*
X133270000Y-92980000D03*
X144510000Y-92930000D03*
D17*
X133290000Y-76980000D03*
X136190000Y-77000000D03*
X148880000Y-77190000D03*
X145700000Y-76980000D03*
D18*
X139322400Y-80062400D02*
X137630000Y-81754800D01*
X128016000Y-86886000D02*
X128016000Y-80037000D01*
X128790000Y-87660000D02*
X128016000Y-86886000D01*
X133220000Y-87660000D02*
X128790000Y-87660000D01*
X137630000Y-83250000D02*
X133220000Y-87660000D01*
X137630000Y-81754800D02*
X137630000Y-83250000D01*
X128016000Y-80037000D02*
X124627000Y-80037000D01*
X121870000Y-77280000D02*
X118920000Y-77280000D01*
X121870000Y-77280000D02*
X124627000Y-80037000D01*
X140639800Y-80062400D02*
X139322400Y-80062400D01*
X139320000Y-80060000D02*
X139322400Y-80062400D01*
X133286200Y-78162400D02*
X133286200Y-76983800D01*
X133286200Y-76983800D02*
X133290000Y-76980000D01*
X136194800Y-78162400D02*
X136194800Y-77004800D01*
X136194800Y-77004800D02*
X136190000Y-77000000D01*
X148894800Y-78162400D02*
X148894800Y-77204800D01*
X148894800Y-77204800D02*
X148880000Y-77190000D01*
X145706800Y-78213200D02*
X145706800Y-76986800D01*
X145706800Y-76986800D02*
X145700000Y-76980000D01*
X128016000Y-78137000D02*
X128016000Y-75104000D01*
X129470000Y-71149200D02*
X128320800Y-70000000D01*
X129470000Y-73650000D02*
X129470000Y-71149200D01*
X128016000Y-75104000D02*
X129470000Y-73650000D01*
X130700000Y-85000000D02*
X130700000Y-81500000D01*
X130886200Y-81313800D02*
X130886200Y-79112400D01*
X130700000Y-81500000D02*
X130886200Y-81313800D01*
X128016000Y-78137000D02*
X129910800Y-78137000D01*
X129910800Y-78137000D02*
X130886200Y-79112400D01*
X154280000Y-85000000D02*
X154280000Y-83180000D01*
X137807600Y-80062400D02*
X136194800Y-80062400D01*
X138160000Y-79710000D02*
X137807600Y-80062400D01*
X138160000Y-69770000D02*
X138160000Y-79710000D01*
X139110000Y-68820000D02*
X138160000Y-69770000D01*
X143690000Y-68820000D02*
X139110000Y-68820000D01*
X145200000Y-70330000D02*
X143690000Y-68820000D01*
X145200000Y-73490000D02*
X145200000Y-70330000D01*
X146880000Y-75170000D02*
X145200000Y-73490000D01*
X155290000Y-75170000D02*
X146880000Y-75170000D01*
X156730000Y-76610000D02*
X155290000Y-75170000D01*
X156730000Y-80730000D02*
X156730000Y-76610000D01*
X154280000Y-83180000D02*
X156730000Y-80730000D01*
X133286200Y-80062400D02*
X136194800Y-80062400D01*
X140639800Y-78162400D02*
X142982400Y-78162400D01*
X143306800Y-78486800D02*
X143306800Y-79163200D01*
X142982400Y-78162400D02*
X143306800Y-78486800D01*
X140639800Y-78162400D02*
X140639800Y-76400200D01*
X143390000Y-70930000D02*
X142460000Y-70000000D01*
X143390000Y-73650000D02*
X143390000Y-70930000D01*
X140639800Y-76400200D02*
X143390000Y-73650000D01*
X143470000Y-85000000D02*
X143470000Y-79326400D01*
X143470000Y-79326400D02*
X143306800Y-79163200D01*
X118890000Y-83290000D02*
X122640000Y-83290000D01*
X138820000Y-85000000D02*
X143470000Y-85000000D01*
X134850000Y-88970000D02*
X138820000Y-85000000D01*
X128320000Y-88970000D02*
X134850000Y-88970000D01*
X122640000Y-83290000D02*
X128320000Y-88970000D01*
X140639800Y-78162400D02*
X140647400Y-78170000D01*
X148894800Y-80062400D02*
X151137600Y-80062400D01*
X152070000Y-79130000D02*
X154280000Y-79130000D01*
X151137600Y-80062400D02*
X152070000Y-79130000D01*
X145706800Y-80113200D02*
X148844000Y-80113200D01*
X148844000Y-80113200D02*
X148894800Y-80062400D01*
M02*
